<?xml version="1.0" encoding="UTF-8" standalone="no"?>
<!DOCTYPE svg PUBLIC "-//W3C//DTD SVG 1.1//EN" "http://www.w3.org/Graphics/SVG/1.1/DTD/svg11.dtd">
<svg width="100%" height="100%" viewBox="0 0 452 452" version="1.1" xmlns="http://www.w3.org/2000/svg" xmlns:xlink="http://www.w3.org/1999/xlink" xml:space="preserve" xmlns:serif="http://www.serif.com/" style="fill-rule:evenodd;clip-rule:evenodd;stroke-linejoin:round;stroke-miterlimit:2;">
    <g>
        <g>
            <g>
                <path d="M225.73,409.73L225.73,438.26" style="fill:none;fill-rule:nonzero;"/>
                <path d="M220.73,409.73L220.73,438.26C220.73,444.708 230.73,444.708 230.73,438.26L230.73,409.73C230.73,403.28 220.73,403.28 220.73,409.73Z" style="fill-rule:nonzero;"/>
            </g>
        </g>
        <g>
            <g>
                <path d="M134.54,385.34L119.431,409.81" style="fill:none;fill-rule:nonzero;"/>
                <path d="M130.22,382.82C125.184,390.976 120.147,399.133 115.111,407.29C111.713,412.793 120.365,417.811 123.746,412.337C128.782,404.181 133.819,396.024 138.855,387.867C142.255,382.357 133.605,377.347 130.225,382.817L130.22,382.82Z" style="fill-rule:nonzero;"/>
            </g>
        </g>
        <g>
            <g>
                <path d="M66.323,317.21L41.573,331.958" style="fill:none;fill-rule:nonzero;"/>
                <path d="M63.799,312.89L39.049,327.638C33.516,330.935 38.543,339.582 44.096,336.273L68.846,321.525C74.379,318.225 69.353,309.575 63.799,312.885L63.799,312.89Z" style="fill-rule:nonzero;"/>
            </g>
        </g>
        <g>
            <g>
                <path d="M41.225,225.66L13.13,225.66" style="fill:none;fill-rule:nonzero;"/>
                <path d="M41.225,220.66L13.13,220.66C6.681,220.66 6.681,230.66 13.13,230.66L41.225,230.66C47.673,230.66 47.673,220.66 41.225,220.66Z" style="fill-rule:nonzero;"/>
            </g>
        </g>
        <g>
            <g>
                <path d="M66.683,133.31L41.573,119.358" style="fill:none;fill-rule:nonzero;"/>
                <path d="M69.207,129C60.837,124.349 52.467,119.699 44.097,115.048C38.455,111.913 33.413,120.551 39.05,123.683C47.42,128.334 55.79,132.984 64.16,137.635C69.801,140.765 74.843,132.135 69.207,129.005L69.207,129Z" style="fill-rule:nonzero;"/>
            </g>
        </g>
        <g>
            <g>
                <path d="M133.1,65.715L119.429,41.504" style="fill:none;fill-rule:nonzero;"/>
                <path d="M137.42,63.192C132.863,55.121 128.306,47.051 123.749,38.981C120.579,33.367 111.939,38.405 115.114,44.028C119.671,52.099 124.228,60.169 128.785,68.239C131.945,73.853 140.585,68.814 137.415,63.192L137.42,63.192Z" style="fill-rule:nonzero;"/>
            </g>
        </g>
        <g>
            <g>
                <path d="M225.73,41.224L225.73,13.061" style="fill:none;fill-rule:nonzero;"/>
                <path d="M230.73,41.224L230.73,13.061C230.73,6.612 220.73,6.612 220.73,13.061L220.73,41.224C220.73,47.672 230.73,47.672 230.73,41.224Z" style="fill-rule:nonzero;"/>
            </g>
        </g>
        <g>
            <g>
                <path d="M318.53,66.512L332.024,41.504" style="fill:none;fill-rule:nonzero;"/>
                <path d="M322.85,69.035C327.348,60.699 331.846,52.363 336.344,44.027C339.406,38.353 330.772,33.304 327.709,38.98C323.211,47.316 318.713,55.652 314.215,63.988C311.165,69.663 319.795,74.711 322.855,69.035L322.85,69.035Z" style="fill-rule:nonzero;"/>
            </g>
        </g>
        <g>
            <g>
                <path d="M385.13,134.11L409.88,119.361" style="fill:none;fill-rule:nonzero;"/>
                <path d="M387.66,138.43C395.91,133.513 404.16,128.597 412.41,123.681C417.942,120.384 412.917,111.737 407.363,115.046C399.113,119.963 390.863,124.879 382.613,129.795C377.083,133.095 382.103,141.745 387.663,138.435L387.66,138.43Z" style="fill-rule:nonzero;"/>
            </g>
        </g>
        <g>
            <g>
                <path d="M409.73,225.66L438.328,225.66" style="fill:none;fill-rule:nonzero;"/>
                <path d="M409.73,230.66L438.328,230.66C444.776,230.66 444.776,220.66 438.328,220.66L409.73,220.66C403.28,220.66 403.28,230.66 409.73,230.66Z" style="fill-rule:nonzero;"/>
            </g>
        </g>
        <g>
            <g>
                <path d="M385.49,318.03L409.88,331.96" style="fill:none;fill-rule:nonzero;"/>
                <path d="M382.97,322.35C391.1,326.994 399.23,331.636 407.36,336.28C412.968,339.483 418.005,330.842 412.407,327.645C404.277,323.001 396.147,318.359 388.017,313.715C382.407,310.515 377.367,319.155 382.967,322.355L382.97,322.35Z" style="fill-rule:nonzero;"/>
            </g>
        </g>
        <g>
            <g>
                <path d="M317.82,384.53L332.031,409.818" style="fill:none;fill-rule:nonzero;"/>
                <path d="M313.5,387.05C318.237,395.48 322.974,403.909 327.711,412.338C330.87,417.959 339.509,412.919 336.346,407.291C331.609,398.861 326.872,390.433 322.135,382.003C318.985,376.383 310.345,381.423 313.505,387.053L313.5,387.05Z" style="fill-rule:nonzero;"/>
            </g>
        </g>
    </g>
</svg>
